HIERARCHY
ROOT Hips
{
    OFFSET 0.000000 0.000000 0.000000
    CHANNELS 6 Xposition Yposition Zposition Zrotation Xrotation Yrotation
    JOINT Spine
    {
        OFFSET -0.000000 0.083210 0.000000
        CHANNELS 3 Zrotation Xrotation Yrotation
        JOINT Spine1
        {
            OFFSET -0.000000 0.256334 0.000000
            CHANNELS 3 Zrotation Xrotation Yrotation
            JOINT Neck
            {
                OFFSET -0.000000 0.275576 0.002912
                CHANNELS 3 Zrotation Xrotation Yrotation
                JOINT Head
                {
                    OFFSET -0.000000 0.157287 0.020295
                    CHANNELS 3 Zrotation Xrotation Yrotation
                    End Site
                    {
                        OFFSET -0.000000 0.202951 0.000000
                    }
                }
            }
            JOINT LeftShoulder
            {
                OFFSET 0.041044 0.235234 -0.000041
                CHANNELS 3 Zrotation Xrotation Yrotation
                JOINT LeftArm
                {
                    OFFSET 0.117964 0.000000 0.000000
                    CHANNELS 3 Zrotation Xrotation Yrotation
                    JOINT LeftForeArm
                    {
                        OFFSET 0.291248 0.000000 0.000000
                        CHANNELS 3 Zrotation Xrotation Yrotation
                        JOINT LeftHand
                        {
                            OFFSET 0.245673 0.000000 0.000000
                            CHANNELS 3 Zrotation Xrotation Yrotation
                            End Site
                            {
                                OFFSET 0.152213 0.000000 0.000000
                            }
                        }
                    }
                }
            }
            JOINT RightShoulder
            {
                OFFSET -0.040052 0.235234 -0.000041
                CHANNELS 3 Zrotation Xrotation Yrotation
                JOINT RightArm
                {
                    OFFSET -0.117964 0.000000 0.000000
                    CHANNELS 3 Zrotation Xrotation Yrotation
                    JOINT RightForeArm
                    {
                        OFFSET -0.291248 0.000000 0.000000
                        CHANNELS 3 Zrotation Xrotation Yrotation
                        JOINT RightHand
                        {
                            OFFSET -0.245673 0.000000 0.000000
                            CHANNELS 3 Zrotation Xrotation Yrotation
                            End Site
                            {
                                OFFSET -0.152213 0.000000 0.000000
                            }
                        }
                    }
                }
            }
        }
    }
    JOINT LeftUpLeg
    {
        OFFSET 0.101475 0.000000 0.000000
        CHANNELS 3 Zrotation Xrotation Yrotation
        JOINT LeftLeg
        {
            OFFSET -0.000000 -0.446535 0.000000
            CHANNELS 3 Zrotation Xrotation Yrotation
            JOINT LeftFoot
            {
                OFFSET -0.000000 -0.400037 0.000000
                CHANNELS 3 Zrotation Xrotation Yrotation
                JOINT LeftToeBase
                {
                    OFFSET -0.000000 -0.065959 0.152213
                    CHANNELS 3 Zrotation Xrotation Yrotation
                    End Site
                    {
                        OFFSET -0.000000 0.000000 0.040590
                    }
                }
            }
        }
    }
    JOINT RightUpLeg
    {
        OFFSET -0.101475 0.000000 0.000000
        CHANNELS 3 Zrotation Xrotation Yrotation
        JOINT RightLeg
        {
            OFFSET -0.000000 -0.446535 0.000000
            CHANNELS 3 Zrotation Xrotation Yrotation
            JOINT RightFoot
            {
                OFFSET -0.000000 -0.400037 0.000000
                CHANNELS 3 Zrotation Xrotation Yrotation
                JOINT RightToeBase
                {
                    OFFSET -0.000000 -0.065959 0.152213
                    CHANNELS 3 Zrotation Xrotation Yrotation
                    End Site
                    {
                        OFFSET -0.000000 0.000000 0.040590
                    }
                }
            }
        }
    }
}
MOTION
Frames:    9
Frame Time:    0.008333
-0.783370    0.956235    -0.960510    0.674412    -0.037496    -1.506192    -1.485600    -0.263196    -1.297851    -0.501800    1.681668    -0.424129    2.050152    0.469258    1.225500    0.564807    -0.191709    1.476320    18.784510    -5.302169    0.121361    -20.869341    2.564073    5.989001    0.101737    2.914458    1.007957    5.729541    3.033461    2.398779    -14.029324    -2.973588    4.717300    19.615723    1.207183    -3.626302    -1.397479    -0.508144    -0.211270    3.062917    -0.580268    -2.600795    5.775362    3.544490    2.252576    -0.448190    1.023671    10.953917    -6.208523    -3.159360    -0.264747    -0.233269    3.204749    2.053981    -4.823740    -0.394897    6.518526    2.535418    9.657203    4.962218    2.970587    -10.131878    -11.098140    -0.033363    -1.233036    -0.917406    
-0.783214    0.956253    -0.960466    0.670144    -0.048760    -1.539922    -1.476637    -0.249626    -1.296409    -0.473242    1.657982    -0.424372    2.006395    0.463841    1.231352    0.556406    -0.178967    1.477238    18.756172    -5.293074    0.135988    -20.894712    2.442071    6.022443    0.072163    2.942317    1.055293    5.626049    3.061438    2.440797    -14.043237    -2.982033    4.720484    19.590654    1.193371    -3.660389    -1.402044    -0.504698    -0.240940    3.165911    -0.579398    -2.594831    5.773571    3.563494    2.299211    -0.461048    1.030751    10.925356    -6.192217    -3.178018    -0.252315    -0.233684    3.202360    2.058007    -4.830005    -0.397436    6.523757    2.533941    9.678349    4.995068    2.976718    -10.139089    -11.099647    -0.033687    -1.243308    -0.924040    
-0.783056    0.956273    -0.960413    0.670266    -0.062869    -1.573342    -1.468766    -0.231899    -1.292811    -0.454511    1.628708    -0.423580    1.986606    0.468085    1.220691    0.505318    -0.163328    1.470042    18.734684    -5.278992    0.147466    -20.924187    2.323321    6.053060    0.051678    2.966414    1.095753    5.507057    3.079247    2.359199    -14.051728    -2.995701    4.720339    19.570362    1.182640    -3.696018    -1.420354    -0.532410    -0.242152    3.358144    -0.612729    -2.638641    5.765649    3.586716    2.335515    -0.470983    1.036256    10.912842    -6.181664    -3.196968    -0.247572    -0.233607    3.205154    2.056889    -4.837711    -0.396936    6.530910    2.526222    9.700272    5.034123    2.984273    -10.150122    -11.113111    -0.033460    -1.246486    -0.917131    
-0.782890    0.956289    -0.960346    0.668074    -0.079798    -1.603951    -1.451580    -0.213471    -1.291176    -0.445697    1.598940    -0.423358    1.964024    0.483375    1.219743    0.477824    -0.155285    1.469655    18.646158    -5.203693    0.147476    -20.874409    2.211119    6.066510    0.027810    2.880578    1.109174    5.506410    2.999077    2.472809    -14.060416    -3.011918    4.715727    19.547184    1.154075    -3.721955    -1.428698    -0.525579    -0.250373    3.412975    -0.607655    -2.647814    5.758662    3.614343    2.351792    -0.479099    1.038364    10.924507    -6.169505    -3.213264    -0.249001    -0.233308    3.205110    2.054268    -4.845432    -0.385222    6.569153    2.526437    9.706702    5.031909    2.989392    -10.159134    -11.117670    -0.033493    -1.238494    -0.919794    
-0.782726    0.956304    -0.960272    0.666056    -0.098454    -1.635613    -1.431538    -0.194262    -1.288676    -0.443620    1.568646    -0.422689    1.942093    0.504277    1.217651    0.455814    -0.148293    1.467659    18.632704    -5.206039    0.153978    -20.918671    2.153309    6.101482    0.009720    2.857588    1.132313    5.664376    2.986463    2.609445    -14.071209    -3.031074    4.717056    19.525658    1.113469    -3.760024    -1.420462    -0.488932    -0.246575    3.259388    -0.567081    -2.639447    5.749265    3.645395    2.366574    -0.484023    1.039394    10.921532    -6.157789    -3.232481    -0.231968    -0.233009    3.196652    2.052954    -4.851997    -0.371059    6.626560    2.526923    9.712052    5.030219    2.998148    -10.163057    -11.143056    -0.033395    -1.251544    -0.914226    
-0.782558    0.956316    -0.960198    0.662496    -0.114888    -1.666020    -1.406205    -0.177950    -1.288776    -0.451485    1.538623    -0.422885    1.935045    0.530654    1.216396    0.430706    -0.144671    1.469032    18.629232    -5.206358    0.167195    -20.962662    2.106451    6.127628    -0.040290    2.798396    1.136936    6.026016    2.937164    2.631189    -14.075299    -3.039714    4.718600    19.491152    1.049721    -3.791358    -1.409894    -0.445819    -0.218210    3.279311    -0.524546    -2.656893    5.741317    3.674759    2.362394    -0.488236    1.036682    10.950284    -6.142874    -3.245576    -0.231042    -0.233266    3.189304    2.056361    -4.857328    -0.356490    6.701718    2.532351    9.711011    4.999739    3.000006    -10.167735    -11.160435    -0.033489    -1.251518    -0.916803    
-0.782384    0.956325    -0.960119    0.659866    -0.131201    -1.695540    -1.380356    -0.165015    -1.286183    -0.458389    1.511512    -0.422060    1.919532    0.562616    1.216681    0.418468    -0.144558    1.469275    18.616131    -5.210177    0.174120    -20.994614    2.073982    6.149201    -0.012827    2.834203    1.178530    5.733783    2.966572    2.643027    -14.085895    -3.043504    4.715300    19.459621    0.997359    -3.813050    -1.406898    -0.419753    -0.190755    3.339584    -0.499095    -2.642222    5.729918    3.705991    2.345246    -0.489253    1.030619    10.997375    -6.136132    -3.262328    -0.234272    -0.233357    3.187156    2.057501    -4.862854    -0.340093    6.777367    2.534524    9.707869    4.975050    3.002025    -10.174231    -11.185050    -0.033377    -1.250793    -0.913917    
-0.782201    0.956333    -0.960034    0.660709    -0.147742    -1.726342    -1.387580    -0.141192    -1.276268    -0.396048    1.462257    -0.419871    1.846389    0.616392    1.213954    0.427251    -0.160276    1.456197    18.567772    -5.204890    0.157553    -21.028326    2.057883    6.179739    -0.024826    2.824450    1.190249    5.753212    2.956229    2.620209    -14.174041    -3.031636    4.700365    19.462156    0.961017    -3.815941    -1.397671    -0.407767    -0.181625    3.371952    -0.488471    -2.660741    5.713687    3.737139    2.325756    -0.489444    1.025290    11.052411    -6.124123    -3.275970    -0.241324    -0.232867    3.178730    2.054495    -4.873657    -0.319711    6.867773    2.541929    9.696513    4.934873    3.007579    -10.178540    -11.210979    -0.033114    -1.248597    -0.907173    
-0.782017    0.956338    -0.959950    0.659406    -0.156779    -1.756235    -1.364530    -0.137735    -1.276372    -0.396720    1.434133    -0.420055    1.823349    0.658410    1.217564    0.424945    -0.155627    1.457647    18.550550    -5.204778    0.161356    -21.056267    2.051901    6.199976    -0.027051    2.826919    1.205484    5.682607    2.952085    2.518464    -14.198700    -3.031266    4.709649    19.447567    0.969723    -3.820508    -1.398044    -0.416001    -0.194024    3.293273    -0.494238    -2.636097    5.699877    3.760175    2.291623    -0.488928    1.023002    11.107814    -6.110724    -3.296302    -0.234282    -0.232499    3.173924    2.052004    -4.880526    -0.279652    6.974948    2.550679    9.681897    4.871867    3.005787    -10.207429    -11.229009    -0.033332    -1.260236    -0.910629    
